<?xml version="1.0" encoding="utf-8"?>
<!-- Generator: Adobe Illustrator 15.0.0, SVG Export Plug-In . SVG Version: 6.00 Build 0)  -->
<!DOCTYPE svg PUBLIC "-//W3C//DTD SVG 1.1//EN" "http://www.w3.org/Graphics/SVG/1.1/DTD/svg11.dtd">
<svg version="1.1" xmlns="http://www.w3.org/2000/svg" xmlns:xlink="http://www.w3.org/1999/xlink" x="0px" y="0px" width="60px"
	 height="30px" viewBox="0 0 60 30" enable-background="new 0 0 60 30" xml:space="preserve">
<g id="Layer_1" display="none">
	<g display="inline">
		<path fill="#25AEB0" d="M30,30h30V0C60,16.568,46.569,30,30,30z"/>
		<path fill="#25AEB0" d="M0,0v30h30C13.432,30,0,16.568,0,0z"/>
	</g>
	<g id="Layer_2" display="inline">
	</g>
	<g id="Layer_3">
		<g display="inline">
			<path fill="none" stroke="#000000" stroke-linejoin="bevel" stroke-miterlimit="10" d="M-30,0
				c9.344,0,13.458,12.771,14.983,14.979C-12.919,18.016-9.313,30,0,30c8.125,0,11.856-9.096,15-15
				c2.563-4.813,6.521-15.011,15-15.011c6.625,0,11.406,6.761,15,15.011c4.906,11.266,9.75,15,15,15"/>
		</g>
	</g>
</g>
<g id="Layer_2_1_">
	<g id="Layer_1_1_">
		<path fill="#25AEB0" d="M-0.003,30C14.998,30,14.998,0,29.999,0s15,30,30.001,30H-0.003z"/>
	</g>
</g>
</svg>
